HIERARCHY
ROOT Hips
{
  OFFSET 5.80788e-005 67.184 3.4734
  CHANNELS 6 Xposition Yposition Zposition Zrotation Xrotation Yrotation
  JOINT Chest
  {
    OFFSET 0 8.7983 -4.7612
    CHANNELS 3 Zrotation Xrotation Yrotation
    JOINT Chest2
    {
      OFFSET 0 8.0291 0.4195
      CHANNELS 3 Zrotation Xrotation Yrotation
      JOINT Chest3
      {
        OFFSET 0 9.9351 -2.2114
        CHANNELS 3 Zrotation Xrotation Yrotation
        JOINT Neck
        {
          OFFSET 0 22.3885 -0.4656
          CHANNELS 3 Zrotation Xrotation Yrotation
          JOINT Head
          {
            OFFSET -0.0001 12.643 3.4389
            CHANNELS 3 Zrotation Xrotation Yrotation
            End Site
            {
              OFFSET 0.0001 17.6655 0.5274
            }
          }
        }
        JOINT LeftCollar
        {
          OFFSET 2.2603 21.606 7.4023
          CHANNELS 3 Zrotation Xrotation Yrotation
          JOINT LeftShoulder
          {
            OFFSET 13.5163 -1.1332 -5.0146
            CHANNELS 3 Zrotation Xrotation Yrotation
            JOINT LeftElbow
            {
              OFFSET -0.0995 -28.05 -0.2431
              CHANNELS 3 Zrotation Xrotation Yrotation
              JOINT LeftWrist
              {
                OFFSET 0.0679 -23.3996 -0.1402
                CHANNELS 3 Zrotation Xrotation Yrotation
                JOINT LeftFinger1
                {
                  OFFSET 0.7932 -9.069 2.5189
                  CHANNELS 3 Zrotation Xrotation Yrotation
                  JOINT LeftFinger11
                  {
                    OFFSET -0.8272 -3.3923 0.5977
                    CHANNELS 3 Zrotation Xrotation Yrotation
                    JOINT LeftFinger12
                    {
                      OFFSET -0.5649 -2.3158 0.4082
                      CHANNELS 3 Zrotation Xrotation Yrotation
                      End Site
                      {
                        OFFSET -0.4919 -1.6479 0.2673
                      }
                    }
                  }
                }
                JOINT LeftFinger2
                {
                  OFFSET 0.9159 -9.2044 0.2193
                  CHANNELS 3 Zrotation Xrotation Yrotation
                  JOINT LeftFinger21
                  {
                    OFFSET 0.0117 -4.1944 -0.0248
                    CHANNELS 3 Zrotation Xrotation Yrotation
                    JOINT LeftFinger22
                    {
                      OFFSET 0.0071 -2.3249 -0.0142
                      CHANNELS 3 Zrotation Xrotation Yrotation
                      End Site
                      {
                        OFFSET -0.1475 -2.0882 0.0028
                      }
                    }
                  }
                }
                JOINT LeftFinger3
                {
                  OFFSET 0.6113 -8.7231 -2.0637
                  CHANNELS 3 Zrotation Xrotation Yrotation
                  JOINT LeftFinger31
                  {
                    OFFSET -0.1927 -3.8059 -0.2383
                    CHANNELS 3 Zrotation Xrotation Yrotation
                    JOINT LeftFinger32
                    {
                      OFFSET -0.1091 -2.1688 -0.1362
                      CHANNELS 3 Zrotation Xrotation Yrotation
                      End Site
                      {
                        OFFSET -0.2358 -1.9176 -0.0906
                      }
                    }
                  }
                }
                JOINT LeftFinger4
                {
                  OFFSET -0.6151 -8.0947 -3.5641
                  CHANNELS 3 Zrotation Xrotation Yrotation
                  JOINT LeftFinger41
                  {
                    OFFSET -0.4882 -2.341 -0.6462
                    CHANNELS 3 Zrotation Xrotation Yrotation
                    JOINT LeftFinger42
                    {
                      OFFSET -0.3575 -1.7167 -0.4742
                      CHANNELS 3 Zrotation Xrotation Yrotation
                      End Site
                      {
                        OFFSET -0.4187 -1.5237 -0.3496
                      }
                    }
                  }
                }
                JOINT LeftFinger0
                {
                  OFFSET -1.42 -1.8761 1.4223
                  CHANNELS 3 Zrotation Xrotation Yrotation
                  JOINT LeftFinger01
                  {
                    OFFSET -1.1471 -3.4929 2.6334
                    CHANNELS 3 Zrotation Xrotation Yrotation
                    JOINT LeftFinger02
                    {
                      OFFSET -0.823 -2.3 1.6571
                      CHANNELS 3 Zrotation Xrotation Yrotation
                      End Site
                      {
                        OFFSET -0.5822 -1.6914 1.1582
                      }
                    }
                  }
                }
              }
            }
          }
        }
        JOINT RightCollar
        {
          OFFSET -2.2603 21.606 7.4023
          CHANNELS 3 Zrotation Xrotation Yrotation
          JOINT RightShoulder
          {
            OFFSET -13.5187 -1.1334 -5.0155
            CHANNELS 3 Zrotation Xrotation Yrotation
            JOINT RightElbow
            {
              OFFSET 0.0994 -28.0499 -0.2431
              CHANNELS 3 Zrotation Xrotation Yrotation
              JOINT RightWrist
              {
                OFFSET -0.0679 -23.3996 -0.1402
                CHANNELS 3 Zrotation Xrotation Yrotation
                JOINT RightFinger1
                {
                  OFFSET -0.7932 -9.0691 2.5189
                  CHANNELS 3 Zrotation Xrotation Yrotation
                  JOINT RightFinger11
                  {
                    OFFSET 0.8272 -3.3923 0.5977
                    CHANNELS 3 Zrotation Xrotation Yrotation
                    JOINT RightFinger12
                    {
                      OFFSET 0.565 -2.3158 0.4082
                      CHANNELS 3 Zrotation Xrotation Yrotation
                      End Site
                      {
                        OFFSET 0.4919 -1.6479 0.2673
                      }
                    }
                  }
                }
                JOINT RightFinger2
                {
                  OFFSET -0.916 -9.2044 0.2193
                  CHANNELS 3 Zrotation Xrotation Yrotation
                  JOINT RightFinger21
                  {
                    OFFSET -0.0117 -4.1944 -0.0248
                    CHANNELS 3 Zrotation Xrotation Yrotation
                    JOINT RightFinger22
                    {
                      OFFSET -0.0071 -2.3249 -0.0142
                      CHANNELS 3 Zrotation Xrotation Yrotation
                      End Site
                      {
                        OFFSET 0.1475 -2.0882 0.0028
                      }
                    }
                  }
                }
                JOINT RightFinger3
                {
                  OFFSET -0.6113 -8.7231 -2.0637
                  CHANNELS 3 Zrotation Xrotation Yrotation
                  JOINT RightFinger31
                  {
                    OFFSET 0.1927 -3.8059 -0.2383
                    CHANNELS 3 Zrotation Xrotation Yrotation
                    JOINT RightFinger32
                    {
                      OFFSET 0.1091 -2.1688 -0.1362
                      CHANNELS 3 Zrotation Xrotation Yrotation
                      End Site
                      {
                        OFFSET 0.2358 -1.9176 -0.0906
                      }
                    }
                  }
                }
                JOINT RightFinger4
                {
                  OFFSET 0.6151 -8.0947 -3.564
                  CHANNELS 3 Zrotation Xrotation Yrotation
                  JOINT RightFinger41
                  {
                    OFFSET 0.4882 -2.341 -0.6462
                    CHANNELS 3 Zrotation Xrotation Yrotation
                    JOINT RightFinger42
                    {
                      OFFSET 0.3574 -1.7166 -0.4742
                      CHANNELS 3 Zrotation Xrotation Yrotation
                      End Site
                      {
                        OFFSET 0.4187 -1.5237 -0.3496
                      }
                    }
                  }
                }
                JOINT RightFinger0
                {
                  OFFSET 1.4199 -1.8761 1.4221
                  CHANNELS 3 Zrotation Xrotation Yrotation
                  JOINT RightFinger01
                  {
                    OFFSET 1.1472 -3.4929 2.6336
                    CHANNELS 3 Zrotation Xrotation Yrotation
                    JOINT RightFinger02
                    {
                      OFFSET 0.8229 -2.3 1.6571
                      CHANNELS 3 Zrotation Xrotation Yrotation
                      End Site
                      {
                        OFFSET 0.5822 -1.6914 1.1582
                      }
                    }
                  }
                }
              }
            }
          }
        }
      }
    }
  }
  JOINT RightHip
  {
    OFFSET -9.412 3.9771 -0.7758
    CHANNELS 3 Zrotation Xrotation Yrotation
    JOINT RightKnee
    {
      OFFSET -0.7531 -40.938 0
      CHANNELS 3 Zrotation Xrotation Yrotation
      JOINT RightAnkle
      {
        OFFSET 0 -40.1986 0
        CHANNELS 3 Zrotation Xrotation Yrotation
        JOINT RightToe
        {
          OFFSET 0 -4.4182 9.239
          CHANNELS 3 Zrotation Xrotation Yrotation
          End Site
          {
            OFFSET 0 0 6.1981
          }
        }
      }
    }
  }
  JOINT LeftHip
  {
    OFFSET 9.4119 3.9773 -0.7758
    CHANNELS 3 Zrotation Xrotation Yrotation
    JOINT LeftKnee
    {
      OFFSET 0.7532 -40.9383 0
      CHANNELS 3 Zrotation Xrotation Yrotation
      JOINT LeftAnkle
      {
        OFFSET 0 -40.1986 0
        CHANNELS 3 Zrotation Xrotation Yrotation
        JOINT LeftToe
        {
          OFFSET 0 -4.4182 9.239
          CHANNELS 3 Zrotation Xrotation Yrotation
          End Site
          {
            OFFSET 0 0 6.1981
          }
        }
      }
    }
  }
}
MOTION
Frames:	5
Frame Time:	0.0333333
5.80788e-005 67.184 3.4734 0 0 -0 0 0 -0 0 0 -0 0 0 -0 0 0 -0 0 0 -0 0 0 -12.5014 88.1196 14.2451 10.6914 -0.00160068 -0.00239207 0.000740045 -8.4365e-005 7.00714e-005 -9.52055e-007 9.93923e-017 -1.98785e-016 -1.59028e-015 9.93923e-017 -5.96354e-016 -1.59028e-015 -9.93923e-017 -5.96354e-016 -1.59028e-015 9.93923e-017 -1.98785e-016 -1.59028e-015 -0.0128176 0.00232552 8.52707e-005 9.93923e-017 5.96354e-016 -0 9.93923e-017 -1.98785e-016 -1.59028e-015 -0.0160551 0.00299681 0.000857156 -2.48481e-016 0 3.18055e-015 9.93923e-017 -1.98785e-016 -1.59028e-015 -0.0125865 0.0031206 0.00282719 0 1.98785e-016 -0 9.93923e-017 -1.98785e-016 -1.59028e-015 9.93923e-017 -5.96354e-016 -1.59028e-015 -9.93923e-017 -5.96354e-016 -1.59028e-015 -0.865644 0.16582 7.03859 -88.0329 10.2057 -10.5567 0.0015593 -0.00248883 -0.000788628 7.87605e-005 4.10553e-005 1.24965e-005 -3.97569e-016 -7.95139e-016 3.18055e-015 -1.98785e-016 -3.97569e-016 3.18055e-015 -1.98785e-016 0 3.18055e-015 -3.97569e-016 -7.95139e-016 3.18055e-015 0.0129473 0.00231697 -8.70038e-005 9.93923e-017 -7.95139e-016 1.59028e-015 -3.97569e-016 -7.95139e-016 3.18055e-015 0.0163314 0.00303369 -0.000872333 3.97569e-016 7.95139e-016 -3.18055e-015 -3.97569e-016 -7.95139e-016 3.18055e-015 0.0145763 0.00367772 -0.00326275 9.93923e-017 -3.97569e-016 -0 -3.97569e-016 -7.95139e-016 3.18055e-015 -1.98785e-016 -3.97569e-016 3.18055e-015 -1.98785e-016 0 3.18055e-015 3.42485 1.36937 -0.0640303 0.000136572 0.69354 0.00145564 -3.42573 -2.06297 -0.0607933 -3.19502e-024 0 -1.48106e-024 -3.42498 1.36123 0.0639712 -6.769e-005 0.712612 -0.0012277 3.42582 -2.07388 0.0612819 2.55305e-023 0 -2.31416e-026 
2.59311 3.77944 8.13933 -46.3817 -89.9994 0.617974 0.032224 -0.308892 -9.88353 0.0109414 -0.618726 -19.7674 0.0109435 -0.618733 -19.7674 -6.67932 18.4667 -18.5507 1.49644 -11.2599 0.0473678 -28.3861 -0.713085 -10.0462 42.1474 -36.9718 8.73709 -49.8203 2.56088 -23.9031 -28.5239 -3.62417 -7.75943 7.95139e-016 6.36111e-015 3.18055e-015 7.95139e-016 3.18055e-015 6.36111e-015 -8.82781e-032 3.18055e-015 1.59028e-015 7.95139e-016 6.36111e-015 3.18055e-015 -0.0128451 0.00232761 8.77842e-005 -1.59028e-015 0 1.59028e-015 7.95139e-016 6.36111e-015 3.18055e-015 -0.0160424 0.00298988 0.000860234 3.97569e-015 2.8625e-014 -1.59028e-015 7.95139e-016 6.36111e-015 3.18055e-015 -0.0125582 0.00311869 0.00282832 -5.29669e-031 -6.36111e-015 -4.77083e-015 7.95139e-016 6.36111e-015 3.18055e-015 7.95139e-016 3.18055e-015 6.36111e-015 -8.82781e-032 3.18055e-015 1.59028e-015 -22.0219 -5.75461 5.00536 -116.778 6.05921 -12.724 -71.6535 -9.58661 45.0467 6.88094 1.19678 -0.126739 -1.35174e-014 -3.18055e-015 2.14687e-014 -7.95139e-015 -3.18055e-015 3.10104e-014 -1.03368e-014 -3.18055e-015 3.65764e-014 -1.35174e-014 -3.18055e-015 2.14687e-014 0.0129478 0.00232461 -8.96974e-005 2.38542e-015 3.18055e-015 3.18055e-015 -1.35174e-014 -3.18055e-015 2.14687e-014 0.0163298 0.00303399 -0.000873471 3.14931e-006 5.94024e-007 -3.75922e-006 -1.35174e-014 -3.18055e-015 2.14687e-014 0.0145728 0.0036787 -0.00325944 -1.43125e-014 -9.54166e-015 2.3059e-014 -1.35174e-014 -3.18055e-015 2.14687e-014 -7.95139e-015 -3.18055e-015 3.10104e-014 -1.03368e-014 -3.18055e-015 3.65764e-014 -8.44251 -6.30826 -26.7601 11.1077 62.9014 -11.6682 -7.95779 17.4915 -0.678735 -4.37326e-015 0 -1.59028e-015 11.6072 -13.8877 2.84854 -6.63153 14.4073 1.63918 8.39339 11.3233 1.11751 -4.82892e-006 -1.79076e-006 -6.35431e-006 
2.59319 3.77986 8.13939 -46.3817 -89.9994 0.617974 0.032224 -0.308892 -9.88353 0.0109414 -0.618726 -19.7674 0.0109435 -0.618733 -19.7674 -6.50108 18.4632 -18.5973 1.92633 -11.2546 0.133753 -28.3861 -0.713085 -10.0462 42.1474 -36.9718 8.73712 -49.1383 2.36768 -23.8997 -28.5239 -3.62414 -7.75943 2.38542e-015 -3.18055e-015 1.59028e-015 2.38542e-015 -6.36111e-015 -4.77083e-015 7.95139e-016 -3.18055e-015 1.59028e-015 2.38542e-015 -3.18055e-015 1.59028e-015 -0.0128038 0.00232007 8.61708e-005 -2.38542e-015 3.18055e-015 1.59028e-015 2.38542e-015 -3.18055e-015 1.59028e-015 -0.0160213 0.00298751 0.000854056 4.77083e-015 6.36111e-015 1.59028e-015 2.38542e-015 -3.18055e-015 1.59028e-015 -0.012602 0.0031329 0.00283156 -1.413e-006 -1.13642e-006 1.91881e-006 2.38542e-015 -3.18055e-015 1.59028e-015 2.38542e-015 -6.36111e-015 -4.77083e-015 7.95139e-016 -3.18055e-015 1.59028e-015 -22.0219 -5.75462 5.00536 -116.778 6.05927 -12.724 -71.6534 -9.5864 45.0473 6.88094 1.19672 -0.127412 -1.59028e-015 0 -3.18055e-015 7.34339e-007 6.36111e-015 4.19101e-007 -2.38542e-015 9.54166e-015 -2.38542e-015 -1.59028e-015 0 -3.18055e-015 0.0129368 0.0023114 -9.05841e-005 -6.17947e-031 3.18055e-015 1.11319e-014 -1.59028e-015 0 -3.18055e-015 0.0163184 0.00303279 -0.000871515 3.18055e-015 0 -1.27222e-014 -1.59028e-015 0 -3.18055e-015 0.0146386 0.0036901 -0.0032799 1.68068e-006 -1.9438e-006 -4.59746e-006 -1.59028e-015 0 -3.18055e-015 7.34339e-007 6.36111e-015 4.19101e-007 -2.38542e-015 9.54166e-015 -2.38542e-015 -8.44222 -6.30773 -26.7601 11.1076 62.901 -11.668 -7.95779 17.4912 -0.678771 -1.19271e-015 0 1.59028e-015 11.5384 -13.9499 2.51797 -6.63197 14.4182 1.64082 8.39723 11.3122 1.11811 4.51429e-006 1.78305e-007 5.30797e-006 
2.59327 3.78029 8.13946 -46.3817 -89.9994 0.617974 0.0322255 -0.308894 -9.88353 0.0109395 -0.618725 -19.7674 0.0109429 -0.618733 -19.7674 -6.32315 18.4586 -18.6438 2.3566 -11.2487 0.220166 -28.3861 -0.713085 -10.0462 42.1475 -36.9718 8.7371 -48.4547 2.17411 -23.894 -28.524 -3.62419 -7.75944 -6.03085e-023 1.08642e-006 3.18055e-015 -2.38542e-015 -6.36111e-015 -3.18055e-015 -7.95139e-016 -1.27222e-014 -4.77083e-015 -6.03085e-023 1.08642e-006 3.18055e-015 -0.0128038 0.00231962 8.61693e-005 1.59028e-015 -3.18055e-015 -3.18055e-015 -6.03085e-023 1.08642e-006 3.18055e-015 -0.0160809 0.00300082 0.000857715 1.11319e-014 0 1.11319e-014 -6.03085e-023 1.08642e-006 3.18055e-015 -0.0125704 0.00311488 0.00282853 -1.59028e-015 3.18055e-015 -0 -6.03085e-023 1.08642e-006 3.18055e-015 -2.38542e-015 -6.36111e-015 -3.18055e-015 -7.95139e-016 -1.27222e-014 -4.77083e-015 -22.0219 -5.75462 5.00536 -116.777 6.05902 -12.7241 -71.6538 -9.58658 45.0468 6.88098 1.19676 -0.126691 4.41391e-032 -3.18055e-015 7.95139e-016 7.95139e-016 -3.18055e-015 -0 2.38542e-015 -3.18055e-015 -0 4.41391e-032 -3.18055e-015 7.95139e-016 0.0129607 0.00231365 -9.07573e-005 7.95139e-016 6.36111e-015 -4.77083e-015 4.41391e-032 -3.18055e-015 7.95139e-016 0.0163501 0.00303423 -0.000875698 7.95139e-016 6.36111e-015 -8.74653e-015 4.41391e-032 -3.18055e-015 7.95139e-016 0.0145463 0.0036623 -0.00325236 1.76556e-031 3.18055e-015 -3.18055e-015 4.41391e-032 -3.18055e-015 7.95139e-016 7.95139e-016 -3.18055e-015 -0 2.38542e-015 -3.18055e-015 -0 -8.44196 -6.30728 -26.7601 11.1075 62.9007 -11.6679 -7.95784 17.491 -0.678802 -3.97569e-016 6.36111e-015 3.18055e-015 11.4691 -14.0119 2.18701 -6.63233 14.429 1.64242 8.40113 11.3014 1.11872 -7.10892e-006 -2.81708e-006 -8.97834e-006 
2.59334 3.78072 8.13952 -46.3817 -89.9994 0.617974 0.0322289 -0.308875 -9.88353 0.01094 -0.618725 -19.7674 0.0109447 -0.618728 -19.7674 -6.14515 18.454 -18.6902 2.78721 -11.2421 0.306608 -28.3861 -0.71308 -10.0462 42.1474 -36.9718 8.7371 -47.7695 1.98016 -23.8859 -28.524 -3.6242 -7.75947 -7.95139e-016 -3.18055e-015 -0 -3.18055e-015 -6.36111e-015 -0 -7.95139e-016 -6.36111e-015 1.59028e-015 -7.95139e-016 -3.18055e-015 -0 -0.0128562 0.00233198 8.61139e-005 -1.76556e-031 -3.18055e-015 -3.18055e-015 -7.95139e-016 -3.18055e-015 -0 -0.0160246 0.00298677 0.000858092 -7.95139e-016 0 -3.18055e-015 -7.95139e-016 -3.18055e-015 -0 -0.0125805 0.00312377 0.00282277 1.59028e-015 3.18055e-015 4.77083e-015 -7.95139e-016 -3.18055e-015 -0 -3.18055e-015 -6.36111e-015 -0 -7.95139e-016 -6.36111e-015 1.59028e-015 -22.0219 -5.75462 5.00535 -116.778 6.05927 -12.724 -71.6534 -9.58666 45.0466 6.88092 1.1968 -0.126643 3.97569e-015 0 7.95139e-016 4.77083e-015 0 -1.59028e-015 -3.18055e-015 0 -0 3.97569e-015 0 7.95139e-016 0.0129371 0.0023112 -7.93383e-005 -6.36111e-015 -3.18055e-015 -0 3.97569e-015 0 7.95139e-016 0.0163426 0.00304592 -0.000869108 -2.38542e-015 -3.18055e-015 -7.95139e-016 3.97569e-015 0 7.95139e-016 0.0145848 0.00368565 -0.00325818 7.95139e-016 0 1.59028e-015 3.97569e-015 0 7.95139e-016 4.77083e-015 0 -1.59028e-015 -3.18055e-015 0 -0 -8.44167 -6.30738 -26.7601 11.1073 62.9009 -11.668 -7.95785 17.4908 -0.678829 5.1684e-015 -6.36111e-015 1.59028e-015 11.3994 -14.0737 1.85565 -6.63277 14.4401 1.64404 8.40509 11.2904 1.11932 -1.59028e-015 -1.59028e-015 2.78299e-015 
